<svg xmlns="http://www.w3.org/2000/svg" width="180" height="180" viewBox="0 0 180 180">
  <defs>
    <linearGradient id="bg" x1="0" y1="0" x2="1" y2="1"><stop stop-color="#f8ecd1"/><stop offset="1" stop-color="#d9bf8d"/></linearGradient>
    <filter id="s"><feDropShadow dx="0" dy="5" stdDeviation="4" flood-color="#5e4935" flood-opacity=".22"/></filter>
  </defs>
  <rect width="180" height="180" rx="22" fill="url(#bg)"/>
  <circle cx="90" cy="84" r="57" fill="#fff8e7" opacity=".52"/>
  <g filter="url(#s)">
    <ellipse cx="90" cy="151" rx="52" ry="25" fill="#8b5d45"/>
    <path d="M48 151q10-42 42-42t42 42z" fill="#8b5d45"/>
    <path d="M66 118h48l-7 19H73z" fill="#434b4d" opacity=".92"/>
    <circle cx="90" cy="77" r="35" fill="#dba17c"/>
    <ellipse cx="90" cy="55" rx="39" ry="27" fill="#4f3124"/>
    <circle cx="59" cy="69" r="17" fill="#4f3124"/>
    <circle cx="121" cy="69" r="17" fill="#4f3124"/>
    <path d="M58 58q31-35 64 0q-13-8-28-7q-21 1-36 7z" fill="#6c4636" opacity=".72"/>
    <ellipse cx="77" cy="80" rx="3.2" ry="4.2" fill="#3c302a"/>
    <ellipse cx="103" cy="80" rx="3.2" ry="4.2" fill="#3c302a"/>
    <circle cx="76" cy="79" r="1" fill="#fff" opacity=".8"/>
    <circle cx="102" cy="79" r="1" fill="#fff" opacity=".8"/>
    <path d="M82 97q8 7 16 0" fill="none" stroke="#a25f58" stroke-width="3" stroke-linecap="round"/>
    <circle cx="69" cy="91" r="6" fill="#e99b93" opacity=".2"/>
    <circle cx="111" cy="91" r="6" fill="#e99b93" opacity=".2"/>
  </g>
  <text x="143" y="42" font-size="25" text-anchor="middle">⚒️</text>
  <path d="M16 150q14 12 0 24M164 150q-14 12 0 24" stroke="#7b6547" stroke-width="2" opacity=".18" fill="none"/>
</svg>